<svg xmlns="http://www.w3.org/2000/svg" xmlns:xlink="http://www.w3.org/1999/xlink" contentStyleType="text/css" height="876px" preserveAspectRatio="none" style="width:1700px;height:876px;background:#FFFFFF;" version="1.1" viewBox="0 0 1700 876" width="1700px" zoomAndPan="magnify"><defs/><g><!--entity user--><g id="elem_user"><ellipse cx="1230.6" cy="19" fill="#FFFFFF" rx="8" ry="8" style="stroke:#000000;stroke-width:1.0;"/><path d="M1230.6,27 L1230.6,54 M1217.6,35 L1243.6,35 M1230.6,54 L1217.6,69 M1230.6,54 L1243.6,69 " fill="none" style="stroke:#000000;stroke-width:1.0;"/><text fill="#000000" font-family="Hack" font-size="14" lengthAdjust="spacing" textLength="104" x="1178.6" y="83.9951">Пользователь</text></g><g id="elem_hashing"><ellipse cx="1123.5978" cy="546.9316" fill="#FFFFFF" rx="138.7578" ry="30.1516" style="stroke:#000000;stroke-width:1.0;"/><text fill="#000000" font-family="Hack" font-size="14" lengthAdjust="spacing" textLength="247" x="1000.0978" y="549.7782">Вычисление хешей изображений</text></g><g id="elem_dedublication"><ellipse cx="1061.5954" cy="282.8151" fill="#FFFFFF" rx="75.7754" ry="17.5551" style="stroke:#000000;stroke-width:1.0;"/><text fill="#000000" font-family="Hack" font-size="14" lengthAdjust="spacing" textLength="108" x="1004.5954" y="286.5626">Дедубликация</text></g><g id="elem_listing"><ellipse cx="1127.5969" cy="408.5814" fill="#FFFFFF" rx="143.0569" ry="31.0114" style="stroke:#000000;stroke-width:1.0;"/><text fill="#000000" font-family="Hack" font-size="14" lengthAdjust="spacing" textLength="256" x="999.5969" y="411.4281">Составление списка изображений</text></g><g id="elem_view"><ellipse cx="1434.6047" cy="48.6529" fill="#FFFFFF" rx="98.6147" ry="22.1229" style="stroke:#000000;stroke-width:1.0;"/><text fill="#000000" font-family="Hack" font-size="14" lengthAdjust="spacing" textLength="161" x="1354.1047" y="51.4996">Просмотр результата</text></g><g id="elem_config"><ellipse cx="593.5952" cy="693.613" fill="#FFFFFF" rx="113.7652" ry="25.153" style="stroke:#000000;stroke-width:1.0;"/><text fill="#000000" font-family="Hack" font-size="14" lengthAdjust="spacing" textLength="194" x="496.5952" y="696.4597">Конфигурация программы</text></g><g id="elem_output"><ellipse cx="1230.6028" cy="184.2826" fill="#FFFFFF" rx="87.9128" ry="19.9826" style="stroke:#000000;stroke-width:1.0;"/><text fill="#000000" font-family="Hack" font-size="14" lengthAdjust="spacing" textLength="137" x="1162.1028" y="187.1292">Генерация вывода</text></g><g id="elem_isimage"><ellipse cx="1483.6014" cy="408.5823" fill="#FFFFFF" rx="115.1614" ry="25.4323" style="stroke:#000000;stroke-width:1.0;"/><text fill="#000000" font-family="Hack" font-size="14" lengthAdjust="spacing" textLength="197" x="1385.1014" y="411.429">Проверка изображение ли</text></g><g id="elem_recursion"><ellipse cx="1299.5978" cy="840.2816" fill="#FFFFFF" rx="138.7578" ry="30.1516" style="stroke:#000000;stroke-width:1.0;"/><text fill="#000000" font-family="Hack" font-size="14" lengthAdjust="spacing" textLength="247" x="1176.0978" y="843.1282">Рекурсивное составление списка</text></g><g id="elem_sides"><ellipse cx="834.601" cy="840.2782" fill="#FFFFFF" rx="121.241" ry="26.6482" style="stroke:#000000;stroke-width:1.0;"/><text fill="#000000" font-family="Hack" font-size="14" lengthAdjust="spacing" textLength="210" x="729.601" y="843.1249">Установить размер стороны</text></g><g id="elem_bins"><ellipse cx="370.6042" cy="840.2808" fill="#FFFFFF" rx="102.7042" ry="22.9408" style="stroke:#000000;stroke-width:1.0;"/><text fill="#000000" font-family="Hack" font-size="14" lengthAdjust="spacing" textLength="170" x="285.6042" y="843.1275">Установить интервалы</text></g><g id="elem_sectors"><ellipse cx="923.5973" cy="693.6095" fill="#FFFFFF" rx="118.8973" ry="26.1795" style="stroke:#000000;stroke-width:1.0;"/><text fill="#000000" font-family="Hack" font-size="14" lengthAdjust="spacing" textLength="205" x="821.0973" y="696.4561">Установить число секторов</text></g><g id="elem_sigma"><ellipse cx="593.5992" cy="840.2818" fill="#FFFFFF" rx="84.8592" ry="19.3718" style="stroke:#000000;stroke-width:1.0;"/><text fill="#000000" font-family="Hack" font-size="14" lengthAdjust="spacing" textLength="130" x="528.5992" y="843.1285">Установить сигму</text></g><g id="elem_deviation"><ellipse cx="196.6032" cy="693.6106" fill="#FFFFFF" rx="185.6032" ry="39.5206" style="stroke:#000000;stroke-width:1.0;"/><text fill="#000000" font-family="Hack" font-size="14" lengthAdjust="spacing" textLength="344" x="24.6032" y="696.4573">Установить предел стандартного отклонения</text></g><g id="elem_median"><ellipse cx="168.6005" cy="546.9341" fill="#FFFFFF" rx="123.1205" ry="27.0241" style="stroke:#000000;stroke-width:1.0;"/><text fill="#000000" font-family="Hack" font-size="14" lengthAdjust="spacing" textLength="214" x="61.6005" y="549.7808">Установить предел медианы</text></g><g id="elem_format"><ellipse cx="734.6039" cy="408.5828" fill="#FFFFFF" rx="144.0139" ry="31.2028" style="stroke:#000000;stroke-width:1.0;"/><text fill="#000000" font-family="Hack" font-size="14" lengthAdjust="spacing" textLength="258" x="605.6039" y="411.4295">Установить генерируемый формат</text></g><g id="elem_fs"><ellipse cx="1236.6026" cy="693.6065" fill="#FFFFFF" rx="124.5326" ry="27.3065" style="stroke:#000000;stroke-width:1.0;"/><text fill="#000000" font-family="Hack" font-size="14" lengthAdjust="spacing" textLength="217" x="1128.1026" y="696.4532">Работа с файловой системой</text></g><g id="elem_txt"><ellipse cx="554.5968" cy="282.8174" fill="#FFFFFF" rx="72.6868" ry="16.9374" style="stroke:#000000;stroke-width:1.0;"/><text fill="#000000" font-family="Hack" font-size="14" lengthAdjust="spacing" textLength="100" x="501.5968" y="286.5649">Генерация txt</text></g><g id="elem_shell"><ellipse cx="476.5991" cy="408.5818" fill="#FFFFFF" rx="78.5591" ry="18.1118" style="stroke:#000000;stroke-width:1.0;"/><text fill="#000000" font-family="Hack" font-size="14" lengthAdjust="spacing" textLength="115" x="416.8728" y="412.1225">Генерация shell</text></g><g id="elem_json"><ellipse cx="768.6036" cy="546.9307" fill="#FFFFFF" rx="77.3536" ry="17.8707" style="stroke:#000000;stroke-width:1.0;"/><text fill="#000000" font-family="Hack" font-size="14" lengthAdjust="spacing" textLength="112" x="709.8833" y="550.6054">Генерация json</text></g><g id="elem_csv"><ellipse cx="737.6048" cy="282.819" fill="#FFFFFF" rx="74.9948" ry="17.399" style="stroke:#000000;stroke-width:1.0;"/><text fill="#000000" font-family="Hack" font-size="14" lengthAdjust="spacing" textLength="106" x="681.6048" y="286.5665">Генерация csv</text></g><!--link user to dedublication--><g id="link_user_dedublication"><path d="M1191.41,87.68 C1170.5,109.09 1145.13,136.95 1125.6,164.3 C1101.57,197.96 1080.02,241.63 1069.11,265.11 " fill="none" id="user-dedublication" style="stroke:#000000;stroke-width:1.0;"/></g><!--link user to view--><g id="link_user_view"><path d="M1282.87,48.65 C1299.05,48.65 1317.43,48.65 1335.68,48.65 " fill="none" id="user-view" style="stroke:#000000;stroke-width:1.0;"/></g><!--link user to config--><g id="link_user_config"><path d="M1178.16,51.99 C987.83,61.17 344.6,98.46 344.6,183.28 C344.6,183.28 344.6,183.28 344.6,547.93 C344.6,623.8 432.1,660.56 503.36,677.92 " fill="none" id="user-config" style="stroke:#000000;stroke-width:1.0;"/></g><!--link user to output--><g id="link_user_output"><path d="M1230.6,87.59 C1230.6,112.59 1230.6,144.27 1230.6,164.16 " fill="none" id="user-output" style="stroke:#000000;stroke-width:1.0;"/></g><!--link user to listing--><g id="link_user_listing"><path d="M1282.48,87.73 C1325.18,124.09 1374.91,181.18 1349.6,235.27 C1317.61,303.65 1243.17,352.33 1189.3,380.13 " fill="none" id="user-listing" style="stroke:#000000;stroke-width:1.0;"/></g><!--reverse link dedublication to listing--><g id="link_dedublication_listing"><path d="M1073.3245,305.8036 C1083.8145,325.4636 1098.61,353.22 1111.51,377.41 " fill="none" id="dedublication-backto-listing" style="stroke:#000000;stroke-width:1.0;stroke-dasharray:7.0,7.0;"/><polygon fill="#000000" points="1070.5,300.51,1071.2077,310.3334,1072.8538,304.9213,1078.2658,306.5674,1070.5,300.51" style="stroke:#000000;stroke-width:1.0;"/><text fill="#000000" font-family="Hack" font-size="13" lengthAdjust="spacing" textLength="61" x="1095.6" y="343.4469">«include»</text></g><!--reverse link dedublication to fs--><g id="link_dedublication_fs"><path d="M1032.2519,303.3174 C1009.4619,319.7374 981.68,344.05 966.6,377.38 C921.35,477.42 885.71,537.79 953.6,624.09 C956.77,628.11 1069.26,654.48 1151.44,673.3 " fill="none" id="dedublication-backto-fs" style="stroke:#000000;stroke-width:1.0;stroke-dasharray:7.0,7.0;"/><polygon fill="#000000" points="1037.12,299.81,1027.4796,301.8257,1033.0633,302.7328,1032.1562,308.3165,1037.12,299.81" style="stroke:#000000;stroke-width:1.0;"/><text fill="#000000" font-family="Hack" font-size="13" lengthAdjust="spacing" textLength="61" x="926.6" y="482.8469">«include»</text></g><!--reverse link hashing to config--><g id="link_hashing_config"><path d="M1032.6617,572.7596 C928.6317,601.1496 760.39,647.08 663.72,673.47 " fill="none" id="hashing-backto-config" style="stroke:#000000;stroke-width:1.0;stroke-dasharray:7.0,7.0;"/><polygon fill="#000000" points="1038.45,571.18,1028.7144,569.6906,1033.6264,572.4964,1030.8206,577.4084,1038.45,571.18" style="stroke:#000000;stroke-width:1.0;"/><text fill="#000000" font-family="Hack" font-size="13" lengthAdjust="spacing" textLength="61" x="906.6" y="620.1569">«include»</text></g><!--reverse link hashing to fs--><g id="link_hashing_fs"><path d="M1149.8934,581.5885 C1170.3734,607.8085 1196.59,641.38 1216.32,666.64 " fill="none" id="hashing-backto-fs" style="stroke:#000000;stroke-width:1.0;stroke-dasharray:7.0,7.0;"/><polygon fill="#000000" points="1146.2,576.86,1148.5877,586.415,1149.2778,580.8004,1154.8924,581.4905,1146.2,576.86" style="stroke:#000000;stroke-width:1.0;"/><text fill="#000000" font-family="Hack" font-size="13" lengthAdjust="spacing" textLength="61" x="1180.6" y="620.1569">«include»</text></g><!--reverse link listing to recursion--><g id="link_listing_recursion"><path d="M1234.3553,432.7972 C1282.0953,448.3372 1329.41,472.8 1359.6,516.78 C1414.23,596.36 1408.96,641.5 1378.6,733.13 C1368.78,762.78 1347.1,790.89 1328.93,810.72 " fill="none" id="listing-backto-recursion" style="stroke:#000000;stroke-width:1.0;stroke-dasharray:7.0,7.0;"/><polygon fill="#000000" points="1228.65,430.94,1235.9699,437.5293,1233.4045,432.4876,1238.4461,429.9222,1228.65,430.94" style="stroke:#000000;stroke-width:1.0;"/><text fill="#000000" font-family="Hack" font-size="13" lengthAdjust="spacing" textLength="60" x="1401.6" y="620.1569">«extend»</text></g><!--reverse link listing to hashing--><g id="link_listing_hashing"><path d="M1126.542,445.8374 C1125.862,468.7474 1125.13,494.04 1124.46,516.69 " fill="none" id="listing-backto-hashing" style="stroke:#000000;stroke-width:1.0;stroke-dasharray:7.0,7.0;"/><polygon fill="#000000" points="1126.72,439.84,1122.4547,448.7174,1126.5717,444.8378,1130.4512,448.9547,1126.72,439.84" style="stroke:#000000;stroke-width:1.0;"/><text fill="#000000" font-family="Hack" font-size="13" lengthAdjust="spacing" textLength="61" x="1126.6" y="482.8469">«include»</text></g><!--reverse link listing to isimage--><g id="link_listing_isimage"><path d="M1277.12,408.58 C1309.37,408.58 1337.18,408.58 1368.11,408.58 " fill="none" id="listing-backto-isimage" style="stroke:#000000;stroke-width:1.0;stroke-dasharray:7.0,7.0;"/><polygon fill="#000000" points="1271.12,408.58,1280.12,412.58,1276.12,408.58,1280.12,404.58,1271.12,408.58" style="stroke:#000000;stroke-width:1.0;"/><text fill="#000000" font-family="Hack" font-size="13" lengthAdjust="spacing" textLength="61" x="1289.05" y="401.6469">«include»</text></g><!--reverse link listing to fs--><g id="link_listing_fs"><path d="M1196.5732,439.5439 C1229.3432,457.1839 1260.95,480.8 1279.6,516.78 C1305.06,565.88 1275.19,630.58 1254.03,666.21 " fill="none" id="listing-backto-fs" style="stroke:#000000;stroke-width:1.0;stroke-dasharray:7.0,7.0;"/><polygon fill="#000000" points="1191.29,436.7,1197.3188,444.488,1195.6927,439.0699,1201.1107,437.4438,1191.29,436.7" style="stroke:#000000;stroke-width:1.0;"/><text fill="#000000" font-family="Hack" font-size="13" lengthAdjust="spacing" textLength="61" x="1289.6" y="551.4969">«include»</text></g><!--reverse link config to sides--><g id="link_config_sides"><path d="M637.2039,720.7787 C681.4539,747.3487 748.68,787.7 793.87,814.83 " fill="none" id="config-backto-sides" style="stroke:#000000;stroke-width:1.0;stroke-dasharray:7.0,7.0;"/><polygon fill="#000000" points="632.06,717.69,637.7168,725.7523,636.3466,720.2639,641.835,718.8937,632.06,717.69" style="stroke:#000000;stroke-width:1.0;"/><text fill="#000000" font-family="Hack" font-size="13" lengthAdjust="spacing" textLength="61" x="736.6" y="776.1969">«include»</text></g><!--reverse link config to bins--><g id="link_config_bins"><path d="M552.7368,721.116 C510.0168,748.836 444.27,791.49 403.08,818.21 " fill="none" id="config-backto-bins" style="stroke:#000000;stroke-width:1.0;stroke-dasharray:7.0,7.0;"/><polygon fill="#000000" points="557.77,717.85,548.0428,719.3934,553.5756,720.5716,552.3974,726.1044,557.77,717.85" style="stroke:#000000;stroke-width:1.0;"/><text fill="#000000" font-family="Hack" font-size="13" lengthAdjust="spacing" textLength="61" x="483.6" y="776.1969">«include»</text></g><!--reverse link config to sectors--><g id="link_config_sectors"><path d="M713.63,693.61 C744.84,693.61 772.74,693.61 804.23,693.61 " fill="none" id="config-backto-sectors" style="stroke:#000000;stroke-width:1.0;stroke-dasharray:7.0,7.0;"/><polygon fill="#000000" points="707.63,693.61,716.63,697.61,712.63,693.61,716.63,689.61,707.63,693.61" style="stroke:#000000;stroke-width:1.0;"/><text fill="#000000" font-family="Hack" font-size="13" lengthAdjust="spacing" textLength="61" x="725.54" y="686.6769">«include»</text></g><!--reverse link config to sigma--><g id="link_config_sigma"><path d="M593.6,725.15 C593.6,753.85 593.6,794.71 593.6,820.61 " fill="none" id="config-backto-sigma" style="stroke:#000000;stroke-width:1.0;stroke-dasharray:7.0,7.0;"/><polygon fill="#000000" points="593.6,719.15,589.6,728.15,593.6,724.15,597.6,728.15,593.6,719.15" style="stroke:#000000;stroke-width:1.0;"/><text fill="#000000" font-family="Hack" font-size="13" lengthAdjust="spacing" textLength="61" x="594.6" y="776.1969">«include»</text></g><!--link deviation to config--><g id="link_deviation_config"><path d="M382.61,693.61 C415.67,693.61 443.21,693.61 473.51,693.61 " fill="none" id="deviation-to-config" style="stroke:#000000;stroke-width:1.0;stroke-dasharray:7.0,7.0;"/><polygon fill="#000000" points="479.51,693.61,470.51,689.61,474.51,693.61,470.51,697.61,479.51,693.61" style="stroke:#000000;stroke-width:1.0;"/><text fill="#000000" font-family="Hack" font-size="13" lengthAdjust="spacing" textLength="61" x="400.52" y="686.6769">«include»</text></g><!--link median to config--><g id="link_median_config"><path d="M191.19,573.73 C207.43,590.63 230.78,611.8 255.6,624.09 C258.5,625.52 405.5164,655.0438 504.6564,674.8638 " fill="none" id="median-to-config" style="stroke:#000000;stroke-width:1.0;stroke-dasharray:7.0,7.0;"/><polygon fill="#000000" points="510.54,676.04,502.4988,670.3533,505.637,675.0598,500.9305,678.198,510.54,676.04" style="stroke:#000000;stroke-width:1.0;"/><text fill="#000000" font-family="Hack" font-size="13" lengthAdjust="spacing" textLength="61" x="256.6" y="620.1569">«include»</text></g><!--link format to config--><g id="link_format_config"><path d="M686.09,438.26 C659.06,457 627.53,484.05 610.6,516.78 C585.32,565.68 586.5786,626.4763 589.9186,662.0163 " fill="none" id="format-to-config" style="stroke:#000000;stroke-width:1.0;stroke-dasharray:7.0,7.0;"/><polygon fill="#000000" points="590.48,667.99,593.6204,658.6552,590.0122,663.0119,585.6555,659.4037,590.48,667.99" style="stroke:#000000;stroke-width:1.0;"/><text fill="#000000" font-family="Hack" font-size="13" lengthAdjust="spacing" textLength="61" x="611.6" y="551.4969">«include»</text></g><!--reverse link config to recursion--><g id="link_config_recursion"><path d="M681.5078,712.6148 C811.7678,739.3148 1059.65,790.11 1200.1,818.89 " fill="none" id="config-backto-recursion" style="stroke:#000000;stroke-width:1.0;stroke-dasharray:7.0,7.0;"/><polygon fill="#000000" points="675.63,711.41,683.6435,717.1357,680.5282,712.414,685.2499,709.2987,675.63,711.41" style="stroke:#000000;stroke-width:1.0;"/><text fill="#000000" font-family="Hack" font-size="13" lengthAdjust="spacing" textLength="61" x="1010.6" y="776.1969">«include»</text></g><!--reverse link view to output--><g id="link_view_output"><path d="M1398.6011,73.2379 C1359.1411,99.0879 1296.56,140.08 1258.59,164.95 " fill="none" id="view-backto-output" style="stroke:#000000;stroke-width:1.0;stroke-dasharray:7.0,7.0;"/><polygon fill="#000000" points="1403.62,69.95,1393.8997,71.5359,1399.4375,72.6899,1398.2835,78.2278,1403.62,69.95" style="stroke:#000000;stroke-width:1.0;"/><text fill="#000000" font-family="Hack" font-size="13" lengthAdjust="spacing" textLength="61" x="1326.6" y="130.3669">«include»</text></g><!--reverse link output to listing--><g id="link_output_listing"><path d="M1222.3124,209.9251 C1211.7524,240.6951 1191.12,297.42 1165.6,347.38 C1160.43,357.5 1154.07,368.13 1148.04,377.58 " fill="none" id="output-backto-listing" style="stroke:#000000;stroke-width:1.0;stroke-dasharray:7.0,7.0;"/><polygon fill="#000000" points="1224.26,204.25,1217.5551,211.4642,1222.637,208.9792,1225.1219,214.0611,1224.26,204.25" style="stroke:#000000;stroke-width:1.0;"/><text fill="#000000" font-family="Hack" font-size="13" lengthAdjust="spacing" textLength="61" x="1201.6" y="287.3869">«include»</text></g><!--reverse link output to format--><g id="link_output_format"><path d="M1163.0843,200.1977 C1075.5443,219.7477 929.04,253.43 905.6,265.27 C848.55,294.09 793.79,345.12 762.21,377.6 " fill="none" id="output-backto-format" style="stroke:#000000;stroke-width:1.0;stroke-dasharray:7.0,7.0;"/><polygon fill="#000000" points="1168.94,198.89,1159.2845,196.9478,1164.0602,199.9798,1161.0282,204.7554,1168.94,198.89" style="stroke:#000000;stroke-width:1.0;"/><text fill="#000000" font-family="Hack" font-size="13" lengthAdjust="spacing" textLength="61" x="906.6" y="287.3869">«include»</text></g><!--reverse link output to fs--><g id="link_output_fs"><path d="M1273.6513,205.2183 C1368.7313,249.3983 1606.47,361.01 1616.6,377.38 C1684.16,486.46 1513.26,595.35 1470.6,624.09 C1431.11,650.69 1381.14,667.15 1337.52,677.23 " fill="none" id="output-backto-fs" style="stroke:#000000;stroke-width:1.0;stroke-dasharray:7.0,7.0;"/><polygon fill="#000000" points="1268.21,202.69,1274.6863,210.11,1272.7444,204.797,1278.0575,202.855,1268.21,202.69" style="stroke:#000000;stroke-width:1.0;"/><text fill="#000000" font-family="Hack" font-size="13" lengthAdjust="spacing" textLength="60" x="1632.6" y="413.1469">«extend»</text></g><!--link shell to format--><g id="link_shell_format"><path d="M555.41,408.58 C566.53,408.58 560.23,408.58 572.11,408.58 " fill="none" id="shell-to-format" style="stroke:#000000;stroke-width:1.0;"/><polygon fill="none" points="590.11,408.58,572.11,402.58,572.11,414.58,590.11,408.58" style="stroke:#000000;stroke-width:1.0;"/></g><!--link txt to format--><g id="link_txt_format"><path d="M577.04,299.25 C605.78,319.01 641.3576,343.472 677.4276,368.272 " fill="none" id="txt-to-format" style="stroke:#000000;stroke-width:1.0;"/><polygon fill="none" points="692.26,378.47,680.827,363.3278,674.0283,373.2161,692.26,378.47" style="stroke:#000000;stroke-width:1.0;"/></g><!--reverse link format to json--><g id="link_format_json"><path d="M746.5896,457.6441 C753.4096,484.9641 758.78,506.54 764.32,528.74 " fill="none" id="format-backto-json" style="stroke:#000000;stroke-width:1.0;"/><polygon fill="none" points="742.23,440.18,740.7683,459.0973,752.411,456.1909,742.23,440.18" style="stroke:#000000;stroke-width:1.0;"/></g><!--link csv to format--><g id="link_csv_format"><path d="M737.2,300.51 C736.73,320.04 736.3624,334.7852 735.7824,358.9252 " fill="none" id="csv-to-format" style="stroke:#000000;stroke-width:1.0;"/><polygon fill="none" points="735.35,376.92,741.7806,359.0693,729.7841,358.7811,735.35,376.92" style="stroke:#000000;stroke-width:1.0;"/></g><!--SRC=[XLHBRjim4Dth5EokNKW728pSHR7ec8Ki5QBaPj554lS79421jgjkqg8NSEAeaHFRkG9vexuPKRRYIkd2biXvC_CuV4ylyh6SI359azGxC5TcOnxifRd3yyRCxRafQNqWGYqABJFlfVbgB-mdKzapyu3WsbIc5FQ3AUrdB9S2Qqg-jgTcRluunF8L5HY7UgoIOzJuZlrREpFNg56PUpJwY8fV61N9g3YArJ3CLPe0-yjix1c8p46erV7CF38993_NCrOwhtjU8OfAPeN_Stigi2pD7KZWV5IUVfmoLV8jy3zGSMtVezB2pgXopL6OHog4JMgsCYjxmLd3D1afwlED-vVjZ1jx0V8RS-iwf4N-fiYzXXHY1EyzIIbeJ9ofj9g4nnAPFn6y9s8uKeKAQwJnMFutBQwJoM6HQHemIlrs6MkcKc4wbu89tE5y9OsAuXkckdR7rIgIkYSNBTUa72H0GvXldNAaahwChQ0sH9KErlIxgRl9OPvclTaqWGLkOkQe7K_2FcgFVEst96knZUDUCCTpHYx0WHI2KJtGUUiPRhKvLOqk_rkUXeVNYZ1k11CPgR0tUR5LJWKwCwmWBbWA8gHXh4YZN6QKPfCmPn7CuI5YEyTf23WtI-PDSbloPBXJIR9tbXXfhrEc-KdESJmxuteiuxYUCBrrObxhD648lNGYXdfQ-qLFFOy-ASBVixpRP1lMxv7VsAjUPtvZ8OTjNEuzgIG6GT24n84O35GoZ8j87Xvsu4Pw3-AvpnL7w_PxY3RWt_IcyI3OkOqnyYINIGJ83X4qtyQz8gqQplczW2uAZZK5sQzxyLQOlDaNpOB6V_tvxBc-S1piZDE7AG9dZcS0jUpxIJmTSsiE92L6rAhP3xlTWTyhbpQYaqK3s5t3zfOTVl3EZttddDrMuRFTTXkGEbld2GHU-Gi0]--></g></svg>