<?xml version="1.0" encoding="us-ascii" standalone="no"?><svg xmlns="http://www.w3.org/2000/svg" xmlns:xlink="http://www.w3.org/1999/xlink" contentStyleType="text/css" height="428px" preserveAspectRatio="none" style="width:765px;height:428px;background:#FFFFFF;" version="1.1" viewBox="0 0 765 428" width="765px" zoomAndPan="magnify"><defs/><g><!--class Application--><g id="elem_Application"><rect codeLine="2" fill="#FFFFFF" height="58.5938" id="Application" rx="2.5" ry="2.5" style="stroke:#000000;stroke-width:1.0;" width="111" x="638" y="52.74"/><ellipse cx="654.5" cy="65.8884" fill="#FFFFFF" rx="8" ry="8" style="stroke:#000000;stroke-width:1.0;"/><path d="M655.5781,63.2166 Q655.6563,63.0916 655.7656,63.0291 Q655.8906,62.9666 656.0156,62.9666 Q656.2344,62.9666 656.375,63.1228 Q656.5156,63.2791 656.5156,63.6384 L656.5156,64.4822 Q656.5156,64.8416 656.375,64.9978 Q656.2344,65.1541 656.0156,65.1541 Q655.8125,65.1541 655.6875,65.0447 Q655.5625,64.9353 655.5,64.6228 Q655.4688,64.4197 655.375,64.3103 Q655.1719,64.0759 654.8125,63.9509 Q654.4531,63.8259 654.0938,63.8259 Q653.6406,63.8259 653.2656,64.0291 Q652.8906,64.2166 652.5938,64.6541 Q652.3125,65.0916 652.3125,65.7009 L652.3125,66.3416 Q652.3125,67.0603 652.8281,67.5447 Q653.3594,68.0291 654.2969,68.0291 Q654.8594,68.0291 655.2344,67.8884 Q655.4688,67.7947 655.7188,67.5291 Q655.875,67.3728 655.9531,67.3259 Q656.0469,67.2791 656.1563,67.2791 Q656.3594,67.2791 656.5156,67.4353 Q656.6719,67.5916 656.6719,67.7947 Q656.6719,67.9978 656.4531,68.2322 Q656.1563,68.5759 655.6875,68.7634 Q655.0625,69.0291 654.2969,69.0291 Q653.4063,69.0291 652.7031,68.6697 Q652.125,68.3728 651.7188,67.7478 Q651.3125,67.1072 651.3125,66.3572 L651.3125,65.6853 Q651.3125,64.9041 651.6719,64.2322 Q652.0469,63.5447 652.6875,63.1853 Q653.3281,62.8259 654.0469,62.8259 Q654.4844,62.8259 654.8594,62.9197 Q655.25,63.0134 655.5781,63.2166 Z " fill="#000000"/><text fill="#000000" font-family="Hack" font-size="14" lengthAdjust="spacing" textLength="75" x="666.5" y="70.7351">Application</text><line style="stroke:#000000;stroke-width:1.0;" x1="639" x2="748" y1="79.0369" y2="79.0369"/><polygon fill="none" points="649,87.6853,653,91.6853,649,95.6853,645,91.6853" style="stroke:#000000;stroke-width:1.0;"/><text fill="#000000" font-family="Hack" font-size="14" lengthAdjust="spacing" textLength="88" x="655" y="96.032">FileList filelist</text><line style="stroke:#000000;stroke-width:1.0;" x1="639" x2="748" y1="103.3338" y2="103.3338"/></g><!--class FileList--><g id="elem_FileList"><rect codeLine="6" fill="#FFFFFF" height="140.0781" id="FileList" rx="2.5" ry="2.5" style="stroke:#000000;stroke-width:1.0;" width="293" x="310" y="12"/><ellipse cx="430" cy="25.1484" fill="#FFFFFF" rx="8" ry="8" style="stroke:#000000;stroke-width:1.0;"/><path d="M431.0781,22.4766 Q431.1563,22.3516 431.2656,22.2891 Q431.3906,22.2266 431.5156,22.2266 Q431.7344,22.2266 431.875,22.3828 Q432.0156,22.5391 432.0156,22.8984 L432.0156,23.7422 Q432.0156,24.1016 431.875,24.2578 Q431.7344,24.4141 431.5156,24.4141 Q431.3125,24.4141 431.1875,24.3047 Q431.0625,24.1953 431,23.8828 Q430.9688,23.6797 430.875,23.5703 Q430.6719,23.3359 430.3125,23.2109 Q429.9531,23.0859 429.5938,23.0859 Q429.1406,23.0859 428.7656,23.2891 Q428.3906,23.4766 428.0938,23.9141 Q427.8125,24.3516 427.8125,24.9609 L427.8125,25.6016 Q427.8125,26.3203 428.3281,26.8047 Q428.8594,27.2891 429.7969,27.2891 Q430.3594,27.2891 430.7344,27.1484 Q430.9688,27.0547 431.2188,26.7891 Q431.375,26.6328 431.4531,26.5859 Q431.5469,26.5391 431.6563,26.5391 Q431.8594,26.5391 432.0156,26.6953 Q432.1719,26.8516 432.1719,27.0547 Q432.1719,27.2578 431.9531,27.4922 Q431.6563,27.8359 431.1875,28.0234 Q430.5625,28.2891 429.7969,28.2891 Q428.9063,28.2891 428.2031,27.9297 Q427.625,27.6328 427.2188,27.0078 Q426.8125,26.3672 426.8125,25.6172 L426.8125,24.9453 Q426.8125,24.1641 427.1719,23.4922 Q427.5469,22.8047 428.1875,22.4453 Q428.8281,22.0859 429.5469,22.0859 Q429.9844,22.0859 430.3594,22.1797 Q430.75,22.2734 431.0781,22.4766 Z " fill="#000000"/><text fill="#000000" font-family="Hack" font-size="14" lengthAdjust="spacing" textLength="46" x="446" y="29.9951">FileList</text><line style="stroke:#000000;stroke-width:1.0;" x1="311" x2="602" y1="38.2969" y2="38.2969"/><polygon fill="none" points="321,46.9453,325,50.9453,321,54.9453,317,50.9453" style="stroke:#000000;stroke-width:1.0;"/><text fill="#000000" font-family="Hack" font-size="14" lengthAdjust="spacing" textLength="81" x="327" y="55.292">bool[] mask</text><polygon fill="none" points="321,63.2422,325,67.2422,321,71.2422,317,67.2422" style="stroke:#000000;stroke-width:1.0;"/><text fill="#000000" font-family="Hack" font-size="14" lengthAdjust="spacing" textLength="109" x="327" y="71.5889">vector&lt;file&gt; list</text><line style="stroke:#000000;stroke-width:1.0;" x1="311" x2="602" y1="78.8906" y2="78.8906"/><ellipse cx="321" cy="92.5391" fill="#FFFFFF" rx="3" ry="3" style="stroke:#000000;stroke-width:1.0;"/><text fill="#000000" font-family="Hack" font-size="14" lengthAdjust="spacing" textLength="270" x="327" y="95.8857">vector&lt;file&gt; get(bool isMasked = true)</text><ellipse cx="321" cy="108.8359" fill="#FFFFFF" rx="3" ry="3" style="stroke:#000000;stroke-width:1.0;"/><text fill="#000000" font-family="Hack" font-size="14" lengthAdjust="spacing" textLength="138" x="327" y="112.1826">void set(string path)</text><ellipse cx="321" cy="125.1328" fill="#FFFFFF" rx="3" ry="3" style="stroke:#000000;stroke-width:1.0;"/><text fill="#000000" font-family="Hack" font-size="14" lengthAdjust="spacing" textLength="137" x="327" y="128.4795">void filter(Filter filter)</text><ellipse cx="321" cy="141.4297" fill="#FFFFFF" rx="3" ry="3" style="stroke:#000000;stroke-width:1.0;"/><text fill="#000000" font-family="Hack" font-size="14" lengthAdjust="spacing" textLength="214" x="327" y="144.7764">void process(Process process)</text></g><!--class file--><g id="elem_file"><rect codeLine="16" fill="#FFFFFF" height="91.1875" id="file" rx="2.5" ry="2.5" style="stroke:#000000;stroke-width:1.0;" width="104" x="356.5" y="212.08"/><ellipse cx="395.5" cy="225.2284" fill="#FFFFFF" rx="8" ry="8" style="stroke:#000000;stroke-width:1.0;"/><path d="M394.0313,227.9784 Q393.9063,228.1347 393.8281,228.1816 Q393.75,228.2128 393.625,228.2128 Q393.4063,228.2128 393.2656,228.0722 Q393.125,227.9159 393.125,227.5566 L393.125,226.8847 Q393.125,226.5253 393.2656,226.3691 Q393.4063,226.2128 393.625,226.2128 Q393.7969,226.2128 393.9219,226.3066 Q394.0469,226.4003 394.1094,226.6191 Q394.1719,226.8378 394.2344,226.9159 Q394.375,227.0566 394.7344,227.2128 Q395.1094,227.3691 395.5313,227.3691 Q396.2031,227.3691 396.625,227.0566 Q396.9063,226.8691 396.9063,226.5878 Q396.9063,226.4003 396.7656,226.2441 Q396.6406,226.0722 396.3438,225.9784 Q396.1406,225.9003 395.4688,225.7753 Q394.6563,225.6191 394.2344,225.4159 Q393.8125,225.1972 393.5625,224.8066 Q393.3281,224.4159 393.3281,223.9628 Q393.3281,223.2441 393.9219,222.7128 Q394.5156,222.1659 395.4844,222.1659 Q395.875,222.1659 396.2031,222.2441 Q396.5313,222.3222 396.7969,222.5097 Q397,222.3222 397.1875,222.3222 Q397.4063,222.3222 397.5469,222.4784 Q397.6875,222.6191 397.6875,222.9784 L397.6875,223.7284 Q397.6875,224.0878 397.5469,224.2441 Q397.4063,224.4003 397.1875,224.4003 Q397,224.4003 396.8594,224.2909 Q396.7656,224.1972 396.7031,223.9628 Q396.6563,223.7128 396.5625,223.6034 Q396.4219,223.4159 396.1406,223.2909 Q395.8594,223.1659 395.4844,223.1659 Q394.9531,223.1659 394.625,223.4159 Q394.3125,223.6659 394.3125,223.9316 Q394.3125,224.1191 394.4375,224.2909 Q394.5781,224.4628 394.8281,224.5722 Q394.9844,224.6347 395.75,224.7909 Q396.5313,224.9316 396.9375,225.1191 Q397.3594,225.2909 397.625,225.6816 Q397.9063,226.0722 397.9063,226.6034 Q397.9063,227.3378 397.375,227.7909 Q396.6875,228.3691 395.6094,228.3691 Q395.2031,228.3691 394.7969,228.2753 Q394.4063,228.1816 394.0313,227.9784 Z " fill="#000000"/><text fill="#000000" font-family="Hack" font-size="14" lengthAdjust="spacing" textLength="19" x="411.5" y="230.0751">file</text><line style="stroke:#000000;stroke-width:1.0;" x1="357.5" x2="459.5" y1="238.3769" y2="238.3769"/><text fill="#000000" font-family="Hack" font-size="14" lengthAdjust="spacing" textLength="74" x="362.5" y="255.372">string path</text><text fill="#000000" font-family="Hack" font-size="14" lengthAdjust="spacing" textLength="92" x="362.5" y="271.6689">string filetype</text><text fill="#000000" font-family="Hack" font-size="14" lengthAdjust="spacing" textLength="86" x="362.5" y="287.9657">double hash</text><line style="stroke:#000000;stroke-width:1.0;" x1="357.5" x2="459.5" y1="295.2675" y2="295.2675"/></g><!--class Filter--><g id="elem_Filter"><rect codeLine="23" fill="#FFFFFF" height="58.5938" id="Filter" rx="2.5" ry="2.5" style="stroke:#000000;stroke-width:1.0;" width="263" x="495" y="228.38"/><ellipse cx="606.5" cy="241.5284" fill="#FFFFFF" rx="8" ry="8" style="stroke:#000000;stroke-width:1.0;"/><path d="M608.2188,242.4191 L605.7969,242.4191 L605.5469,243.0284 L605.7969,243.0284 Q606.1563,243.0284 606.3125,243.1691 Q606.4688,243.3097 606.4688,243.5284 Q606.4688,243.7472 606.3125,243.8878 Q606.1563,244.0284 605.7969,244.0284 L604.4375,244.0284 Q604.0781,244.0284 603.9375,243.8878 Q603.7813,243.7472 603.7813,243.5284 Q603.7813,243.2941 603.9375,243.1534 Q604.0938,243.0128 604.4688,243.0284 L606.0469,239.1066 L605.3906,239.1066 Q605.0313,239.1066 604.875,238.9659 Q604.7188,238.8253 604.7188,238.6066 Q604.7188,238.3878 604.875,238.2472 Q605.0313,238.1066 605.3906,238.1066 L607.5469,238.1066 L609.5469,243.0284 Q609.8906,243.0284 610,243.1066 Q610.2344,243.2628 610.2344,243.5284 Q610.2344,243.7472 610.0781,243.8878 Q609.9219,244.0284 609.5625,244.0284 L608.2188,244.0284 Q607.8594,244.0284 607.7031,243.8878 Q607.5469,243.7472 607.5469,243.5284 Q607.5469,243.3097 607.7031,243.1691 Q607.8594,243.0284 608.2188,243.0284 L608.4688,243.0284 L608.2188,242.4191 Z M607.8125,241.4191 L607,239.4347 L606.1875,241.4191 L607.8125,241.4191 Z " fill="#000000"/><text fill="#000000" font-family="Hack" font-size="14" font-style="italic" lengthAdjust="spacing" textLength="33" x="622.5" y="246.3751">Filter</text><line style="stroke:#000000;stroke-width:1.0;" x1="496" x2="757" y1="254.6769" y2="254.6769"/><line style="stroke:#000000;stroke-width:1.0;" x1="496" x2="757" y1="262.6769" y2="262.6769"/><ellipse cx="506" cy="276.3253" fill="#FFFFFF" rx="3" ry="3" style="stroke:#000000;stroke-width:1.0;"/><text fill="#000000" font-family="Hack" font-size="14" lengthAdjust="spacing" textLength="240" x="512" y="279.672">vector&lt;file&gt; run(vector&lt;file&gt; files)</text></g><!--class Processor--><g id="elem_Processor"><rect codeLine="28" fill="#FFFFFF" height="58.5938" id="Processor" rx="2.5" ry="2.5" style="stroke:#000000;stroke-width:1.0;" width="263" x="12" y="52.74"/><ellipse cx="106.5" cy="65.8884" fill="#FFFFFF" rx="8" ry="8" style="stroke:#000000;stroke-width:1.0;"/><path d="M108.2188,66.7791 L105.7969,66.7791 L105.5469,67.3884 L105.7969,67.3884 Q106.1563,67.3884 106.3125,67.5291 Q106.4688,67.6697 106.4688,67.8884 Q106.4688,68.1072 106.3125,68.2478 Q106.1563,68.3884 105.7969,68.3884 L104.4375,68.3884 Q104.0781,68.3884 103.9375,68.2478 Q103.7813,68.1072 103.7813,67.8884 Q103.7813,67.6541 103.9375,67.5134 Q104.0938,67.3728 104.4688,67.3884 L106.0469,63.4666 L105.3906,63.4666 Q105.0313,63.4666 104.875,63.3259 Q104.7188,63.1853 104.7188,62.9666 Q104.7188,62.7478 104.875,62.6072 Q105.0313,62.4666 105.3906,62.4666 L107.5469,62.4666 L109.5469,67.3884 Q109.8906,67.3884 110,67.4666 Q110.2344,67.6228 110.2344,67.8884 Q110.2344,68.1072 110.0781,68.2478 Q109.9219,68.3884 109.5625,68.3884 L108.2188,68.3884 Q107.8594,68.3884 107.7031,68.2478 Q107.5469,68.1072 107.5469,67.8884 Q107.5469,67.6697 107.7031,67.5291 Q107.8594,67.3884 108.2188,67.3884 L108.4688,67.3884 L108.2188,66.7791 Z M107.8125,65.7791 L107,63.7947 L106.1875,65.7791 L107.8125,65.7791 Z " fill="#000000"/><text fill="#000000" font-family="Hack" font-size="14" font-style="italic" lengthAdjust="spacing" textLength="67" x="122.5" y="70.7351">Processor</text><line style="stroke:#000000;stroke-width:1.0;" x1="13" x2="274" y1="79.0369" y2="79.0369"/><line style="stroke:#000000;stroke-width:1.0;" x1="13" x2="274" y1="87.0369" y2="87.0369"/><ellipse cx="23" cy="100.6853" fill="#FFFFFF" rx="3" ry="3" style="stroke:#000000;stroke-width:1.0;"/><text fill="#000000" font-family="Hack" font-size="14" lengthAdjust="spacing" textLength="240" x="29" y="104.032">vector&lt;file&gt; run(vector&lt;file&gt; files)</text></g><!--class GenericProcessor--><g id="elem_GenericProcessor"><rect codeLine="33" fill="#FFFFFF" height="58.5938" id="GenericProcessor" rx="2.5" ry="2.5" style="stroke:#000000;stroke-width:1.0;" width="263" x="12" y="228.38"/><ellipse cx="78" cy="241.5284" fill="#FFFFFF" rx="8" ry="8" style="stroke:#000000;stroke-width:1.0;"/><path d="M79.0781,238.8566 Q79.1563,238.7316 79.2656,238.6691 Q79.3906,238.6066 79.5156,238.6066 Q79.7344,238.6066 79.875,238.7628 Q80.0156,238.9191 80.0156,239.2784 L80.0156,240.1222 Q80.0156,240.4816 79.875,240.6378 Q79.7344,240.7941 79.5156,240.7941 Q79.3125,240.7941 79.1875,240.6847 Q79.0625,240.5753 79,240.2628 Q78.9688,240.0597 78.875,239.9503 Q78.6719,239.7159 78.3125,239.5909 Q77.9531,239.4659 77.5938,239.4659 Q77.1406,239.4659 76.7656,239.6691 Q76.3906,239.8566 76.0938,240.2941 Q75.8125,240.7316 75.8125,241.3409 L75.8125,241.9816 Q75.8125,242.7003 76.3281,243.1847 Q76.8594,243.6691 77.7969,243.6691 Q78.3594,243.6691 78.7344,243.5284 Q78.9688,243.4347 79.2188,243.1691 Q79.375,243.0128 79.4531,242.9659 Q79.5469,242.9191 79.6563,242.9191 Q79.8594,242.9191 80.0156,243.0753 Q80.1719,243.2316 80.1719,243.4347 Q80.1719,243.6378 79.9531,243.8722 Q79.6563,244.2159 79.1875,244.4034 Q78.5625,244.6691 77.7969,244.6691 Q76.9063,244.6691 76.2031,244.3097 Q75.625,244.0128 75.2188,243.3878 Q74.8125,242.7472 74.8125,241.9972 L74.8125,241.3253 Q74.8125,240.5441 75.1719,239.8722 Q75.5469,239.1847 76.1875,238.8253 Q76.8281,238.4659 77.5469,238.4659 Q77.9844,238.4659 78.3594,238.5597 Q78.75,238.6534 79.0781,238.8566 Z " fill="#000000"/><text fill="#000000" font-family="Hack" font-size="14" lengthAdjust="spacing" textLength="124" x="94" y="246.3751">GenericProcessor</text><line style="stroke:#000000;stroke-width:1.0;" x1="13" x2="274" y1="254.6769" y2="254.6769"/><line style="stroke:#000000;stroke-width:1.0;" x1="13" x2="274" y1="262.6769" y2="262.6769"/><ellipse cx="23" cy="276.3253" fill="#FFFFFF" rx="3" ry="3" style="stroke:#000000;stroke-width:1.0;"/><text fill="#000000" font-family="Hack" font-size="14" lengthAdjust="spacing" textLength="240" x="29" y="279.672">vector&lt;file&gt; run(vector&lt;file&gt; files)</text></g><!--class GenericFilter--><g id="elem_GenericFilter"><rect codeLine="38" fill="#FFFFFF" height="58.5938" id="GenericFilter" rx="2.5" ry="2.5" style="stroke:#000000;stroke-width:1.0;" width="263" x="495" y="363.27"/><ellipse cx="579.5" cy="376.4184" fill="#FFFFFF" rx="8" ry="8" style="stroke:#000000;stroke-width:1.0;"/><path d="M580.5781,373.7466 Q580.6563,373.6216 580.7656,373.5591 Q580.8906,373.4966 581.0156,373.4966 Q581.2344,373.4966 581.375,373.6528 Q581.5156,373.8091 581.5156,374.1684 L581.5156,375.0122 Q581.5156,375.3716 581.375,375.5278 Q581.2344,375.6841 581.0156,375.6841 Q580.8125,375.6841 580.6875,375.5747 Q580.5625,375.4653 580.5,375.1528 Q580.4688,374.9497 580.375,374.8403 Q580.1719,374.6059 579.8125,374.4809 Q579.4531,374.3559 579.0938,374.3559 Q578.6406,374.3559 578.2656,374.5591 Q577.8906,374.7466 577.5938,375.1841 Q577.3125,375.6216 577.3125,376.2309 L577.3125,376.8716 Q577.3125,377.5903 577.8281,378.0747 Q578.3594,378.5591 579.2969,378.5591 Q579.8594,378.5591 580.2344,378.4184 Q580.4688,378.3247 580.7188,378.0591 Q580.875,377.9028 580.9531,377.8559 Q581.0469,377.8091 581.1563,377.8091 Q581.3594,377.8091 581.5156,377.9653 Q581.6719,378.1216 581.6719,378.3247 Q581.6719,378.5278 581.4531,378.7622 Q581.1563,379.1059 580.6875,379.2934 Q580.0625,379.5591 579.2969,379.5591 Q578.4063,379.5591 577.7031,379.1997 Q577.125,378.9028 576.7188,378.2778 Q576.3125,377.6372 576.3125,376.8872 L576.3125,376.2153 Q576.3125,375.4341 576.6719,374.7622 Q577.0469,374.0747 577.6875,373.7153 Q578.3281,373.3559 579.0469,373.3559 Q579.4844,373.3559 579.8594,373.4497 Q580.25,373.5434 580.5781,373.7466 Z " fill="#000000"/><text fill="#000000" font-family="Hack" font-size="14" lengthAdjust="spacing" textLength="87" x="595.5" y="381.2651">GenericFilter</text><line style="stroke:#000000;stroke-width:1.0;" x1="496" x2="757" y1="389.5669" y2="389.5669"/><line style="stroke:#000000;stroke-width:1.0;" x1="496" x2="757" y1="397.5669" y2="397.5669"/><ellipse cx="506" cy="411.2153" fill="#FFFFFF" rx="3" ry="3" style="stroke:#000000;stroke-width:1.0;"/><text fill="#000000" font-family="Hack" font-size="14" lengthAdjust="spacing" textLength="240" x="512" y="414.562">vector&lt;file&gt; run(vector&lt;file&gt; files)</text></g><!--link FileList to Application--><g id="link_FileList_Application"><path codeLine="14" d="M603.24,82.04 C614.75,82.04 614.27,82.04 625.79,82.04 " fill="none" id="FileList-to-Application" style="stroke:#000000;stroke-width:1.0;"/><polygon fill="#000000" points="637.79,82.04,631.79,78.04,625.79,82.04,631.79,86.04,637.79,82.04" style="stroke:#000000;stroke-width:1.0;"/></g><!--reverse link FileList to file--><g id="link_FileList_file"><path codeLine="21" d="M434.194,163.7266 C428.654,183.7766 425.94,193.58 420.92,211.73 " fill="none" id="FileList-backto-file" style="stroke:#000000;stroke-width:1.0;"/><polygon fill="#000000" points="437.39,152.16,431.9365,156.878,434.194,163.7266,439.6476,159.0086,437.39,152.16" style="stroke:#000000;stroke-width:1.0;"/></g><!--reverse link FileList to Filter--><g id="link_FileList_Filter"><path codeLine="26" d="M532.5741,160.7355 C558.4941,187.2155 578.27,207.42 598.48,228.06 " fill="none" id="FileList-backto-Filter" style="stroke:#000000;stroke-width:1.0;"/><polygon fill="none" points="524.18,152.16,525.5186,159.2458,532.5741,160.7355,531.2356,153.6497,524.18,152.16" style="stroke:#000000;stroke-width:1.0;"/></g><!--link Processor to FileList--><g id="link_Processor_FileList"><path codeLine="31" d="M275.24,82.04 C286.69,82.04 286.13,82.04 297.58,82.04 " fill="none" id="Processor-to-FileList" style="stroke:#000000;stroke-width:1.0;"/><polygon fill="none" points="309.58,82.04,303.58,78.04,297.58,82.04,303.58,86.04,309.58,82.04" style="stroke:#000000;stroke-width:1.0;"/></g><!--link Processor to GenericProcessor--><g id="link_Processor_GenericProcessor"><path codeLine="36" d="M143.5,111.71 C143.5,143.88 143.5,177.77 143.5,209.96 " fill="none" id="Processor-to-GenericProcessor" style="stroke:#000000;stroke-width:1.0;"/><polygon fill="none" points="143.5,227.96,149.5,209.96,137.5,209.96,143.5,227.96" style="stroke:#000000;stroke-width:1.0;"/></g><!--link Filter to GenericFilter--><g id="link_Filter_GenericFilter"><path codeLine="41" d="M626.5,287.18 C626.5,309.6 626.5,322.69 626.5,345.1 " fill="none" id="Filter-to-GenericFilter" style="stroke:#000000;stroke-width:1.0;"/><polygon fill="none" points="626.5,363.1,632.5,345.1,620.5,345.1,626.5,363.1" style="stroke:#000000;stroke-width:1.0;"/></g><!--SRC=[fL71JiCm3BtdAunswORo1p29oxY0n7tYaARU6f76LPA2qE3VSTeiT1kdqKCIs-yz-xatiSKEeID7GbiL0ZpqlJLQHKCE3WBuMsoCnISJ8kpuOVaXlaL6brA6raHs-mgT2czJuXrr97-Nc6iOkIbzUvBUOwmI4KnuPY8sS0_H3xZCM38D1CQ4w8tRGwzYEo-nI4HVRSOhH_DwxqbZ2DNBT1_Z9RkOcrr9YxieYoKXkD-W9zVPtso2UPmGyRF7CTVGK3EXLQ7b3cL1Aob7d12gPffYuRB2DFVXZyNumLKdYNIEWnTPaZ8hN0Xdl_GFxMaZHUZurn_HeJVwsWQ_FDdGXvDVwml5iqxNxYYHpdjCwHy0]--></g></svg>