<?xml version="1.0" encoding="us-ascii" standalone="no"?><svg xmlns="http://www.w3.org/2000/svg" xmlns:xlink="http://www.w3.org/1999/xlink" contentStyleType="text/css" height="829px" preserveAspectRatio="none" style="width:1190px;height:829px;background:#FFFFFF;" version="1.1" viewBox="0 0 1190 829" width="1190px" zoomAndPan="magnify"><defs/><g><!--entity user--><g id="elem_user"><ellipse cx="574.7" cy="262.44" fill="#FFFFFF" rx="8" ry="8" style="stroke:#000000;stroke-width:1.0;"/><path d="M574.7,270.44 L574.7,297.44 M561.7,278.44 L587.7,278.44 M574.7,297.44 L561.7,312.44 M574.7,297.44 L587.7,312.44 " fill="none" style="stroke:#000000;stroke-width:1.0;"/><text fill="#000000" font-family="Hack" font-size="14" lengthAdjust="spacing" textLength="104" x="522.7" y="327.4351">&#1055;&#1086;&#1083;&#1100;&#1079;&#1086;&#1074;&#1072;&#1090;&#1077;&#1083;&#1100;</text></g><g id="elem_unite"><ellipse cx="469.6998" cy="433.92" fill="#FFFFFF" rx="86.5998" ry="19.72" style="stroke:#000000;stroke-width:1.0;"/><text fill="#000000" font-family="Hack" font-size="14" lengthAdjust="spacing" textLength="134" x="402.6998" y="436.7666">&#1056;&#1072;&#1073;&#1086;&#1090;&#1072; &#1089; &#1092;&#1072;&#1081;&#1083;&#1072;&#1084;&#1080;</text></g><g id="elem_dup"><ellipse cx="569.7031" cy="693.0286" fill="#FFFFFF" rx="91.4431" ry="20.6886" style="stroke:#000000;stroke-width:1.0;"/><text fill="#000000" font-family="Hack" font-size="14" lengthAdjust="spacing" textLength="145" x="497.2031" y="695.8753">&#1059;&#1076;&#1072;&#1083;&#1080;&#1090;&#1100; &#1076;&#1091;&#1073;&#1083;&#1080;&#1082;&#1072;&#1090;&#1099;</text></g><g id="elem_find"><ellipse cx="806.6973" cy="433.9195" fill="#FFFFFF" rx="118.8973" ry="26.1795" style="stroke:#000000;stroke-width:1.0;"/><text fill="#000000" font-family="Hack" font-size="14" lengthAdjust="spacing" textLength="205" x="704.1973" y="436.7661">&#1053;&#1072;&#1081;&#1090;&#1080; &#1092;&#1072;&#1081;&#1083;&#1099; &#1087;&#1086; &#1082;&#1088;&#1080;&#1090;&#1077;&#1088;&#1080;&#1103;&#1084;</text></g><g id="elem_remove"><ellipse cx="599.6991" cy="564.4118" fill="#FFFFFF" rx="78.5591" ry="18.1118" style="stroke:#000000;stroke-width:1.0;"/><text fill="#000000" font-family="Hack" font-size="14" lengthAdjust="spacing" textLength="115" x="539.9728" y="567.9525">&#1059;&#1076;&#1072;&#1083;&#1080;&#1090;&#1100; &#1092;&#1072;&#1081;&#1083;&#1099;</text></g><g id="elem_move"><ellipse cx="233.7018" cy="564.4124" fill="#FFFFFF" rx="95.0118" ry="21.4024" style="stroke:#000000;stroke-width:1.0;"/><text fill="#000000" font-family="Hack" font-size="14" lengthAdjust="spacing" textLength="153" x="157.2018" y="567.259">&#1055;&#1077;&#1088;&#1077;&#1084;&#1077;&#1089;&#1090;&#1080;&#1090;&#1100; &#1092;&#1072;&#1081;&#1083;&#1099;</text></g><g id="elem_cp"><ellipse cx="254.6993" cy="433.9239" fill="#FFFFFF" rx="93.6693" ry="21.1339" style="stroke:#000000;stroke-width:1.0;"/><text fill="#000000" font-family="Hack" font-size="14" lengthAdjust="spacing" textLength="150" x="179.6993" y="436.7705">&#1057;&#1082;&#1086;&#1087;&#1080;&#1088;&#1086;&#1074;&#1072;&#1090;&#1100; &#1092;&#1072;&#1081;&#1083;&#1099;</text></g><g id="elem_rename"><ellipse cx="113.7042" cy="292.0908" fill="#FFFFFF" rx="102.7042" ry="22.9408" style="stroke:#000000;stroke-width:1.0;"/><text fill="#000000" font-family="Hack" font-size="14" lengthAdjust="spacing" textLength="170" x="28.7042" y="294.9375">&#1055;&#1077;&#1088;&#1077;&#1080;&#1084;&#1077;&#1085;&#1086;&#1074;&#1072;&#1090;&#1100; &#1092;&#1072;&#1081;&#1083;&#1099;</text></g><g id="elem_convert"><ellipse cx="233.7035" cy="693.0287" fill="#FFFFFF" rx="109.5935" ry="24.3187" style="stroke:#000000;stroke-width:1.0;"/><text fill="#000000" font-family="Hack" font-size="14" lengthAdjust="spacing" textLength="185" x="141.2035" y="695.8754">&#1057;&#1082;&#1086;&#1085;&#1074;&#1077;&#1088;&#1090;&#1080;&#1088;&#1086;&#1074;&#1072;&#1090;&#1100; &#1092;&#1072;&#1081;&#1083;&#1099;</text></g><g id="elem_substr"><ellipse cx="806.6993" cy="564.4139" fill="#FFFFFF" rx="93.6693" ry="21.1339" style="stroke:#000000;stroke-width:1.0;"/><text fill="#000000" font-family="Hack" font-size="14" lengthAdjust="spacing" textLength="150" x="731.6993" y="567.2605">&#1055;&#1086;&#1080;&#1089;&#1082; &#1087;&#1086; &#1087;&#1086;&#1076;&#1089;&#1090;&#1088;&#1086;&#1082;&#1077;</text></g><g id="elem_regex"><ellipse cx="806.6986" cy="292.0857" fill="#FFFFFF" rx="142.5786" ry="30.9157" style="stroke:#000000;stroke-width:1.0;"/><text fill="#000000" font-family="Hack" font-size="14" lengthAdjust="spacing" textLength="255" x="679.1986" y="294.9324">&#1055;&#1086;&#1080;&#1089;&#1082; &#1087;&#1086; &#1088;&#1077;&#1075;&#1091;&#1083;&#1103;&#1088;&#1085;&#1086;&#1084;&#1091; &#1074;&#1099;&#1088;&#1072;&#1078;&#1077;&#1085;&#1080;&#1102;</text></g><g id="elem_simularity"><ellipse cx="1059.7026" cy="564.4065" fill="#FFFFFF" rx="124.5326" ry="27.3065" style="stroke:#000000;stroke-width:1.0;"/><text fill="#000000" font-family="Hack" font-size="14" lengthAdjust="spacing" textLength="217" x="951.2026" y="567.2532">&#1055;&#1086;&#1080;&#1089;&#1082; &#1087;&#1086; &#1087;&#1088;&#1086;&#1094;&#1077;&#1085;&#1090;&#1091; &#1089;&#1093;&#1086;&#1078;&#1077;&#1089;&#1090;&#1080;</text></g><g id="elem_view"><ellipse cx="370.7002" cy="292.092" fill="#FFFFFF" rx="116.5602" ry="25.712" style="stroke:#000000;stroke-width:1.0;"/><text fill="#000000" font-family="Hack" font-size="14" lengthAdjust="spacing" textLength="200" x="270.7002" y="294.9387">&#1055;&#1088;&#1086;&#1089;&#1084;&#1086;&#1090;&#1088; &#1074;&#1099;&#1073;&#1086;&#1088;&#1082;&#1080; &#1092;&#1072;&#1081;&#1083;&#1086;&#1074;</text></g><g id="elem_sort"><ellipse cx="370.7009" cy="147.5282" fill="#FFFFFF" rx="123.5909" ry="27.1182" style="stroke:#000000;stroke-width:1.0;"/><text fill="#000000" font-family="Hack" font-size="14" lengthAdjust="spacing" textLength="215" x="263.2009" y="150.3749">&#1057;&#1086;&#1088;&#1090;&#1080;&#1088;&#1086;&#1074;&#1082;&#1072; &#1074;&#1099;&#1073;&#1086;&#1088;&#1082;&#1080; &#1092;&#1072;&#1081;&#1083;&#1086;&#1074;</text></g><g id="elem_name"><ellipse cx="489.7026" cy="34.3125" fill="#FFFFFF" rx="98.1626" ry="22.0325" style="stroke:#000000;stroke-width:1.0;"/><text fill="#000000" font-family="Hack" font-size="14" lengthAdjust="spacing" textLength="160" x="409.7026" y="37.1592">&#1057;&#1086;&#1088;&#1090;&#1080;&#1088;&#1086;&#1074;&#1082;&#1072; &#1087;&#1086; &#1080;&#1084;&#1077;&#1085;&#1080;</text></g><g id="elem_date"><ellipse cx="661.7021" cy="147.5344" fill="#FFFFFF" rx="132.5721" ry="28.9144" style="stroke:#000000;stroke-width:1.0;"/><text fill="#000000" font-family="Hack" font-size="14" lengthAdjust="spacing" textLength="234" x="544.7021" y="150.3811">&#1057;&#1086;&#1088;&#1090;&#1080;&#1088;&#1086;&#1074;&#1082;&#1072; &#1087;&#1086; &#1076;&#1072;&#1090;&#1077; &#1080;&#1079;&#1084;&#1077;&#1085;&#1077;&#1085;&#1080;&#1103;</text></g><g id="elem_size"><ellipse cx="251.7029" cy="34.3066" fill="#FFFFFF" rx="104.5329" ry="23.3066" style="stroke:#000000;stroke-width:1.0;"/><text fill="#000000" font-family="Hack" font-size="14" lengthAdjust="spacing" textLength="174" x="164.7029" y="37.1533">&#1057;&#1086;&#1088;&#1090;&#1080;&#1088;&#1086;&#1074;&#1082;&#1072; &#1087;&#1086; &#1088;&#1072;&#1079;&#1084;&#1077;&#1088;&#1091;</text></g><g id="elem_clean"><ellipse cx="396.6968" cy="809.0897" fill="#FFFFFF" rx="55.5868" ry="14.7397" style="stroke:#000000;stroke-width:1.0;"/><text fill="#000000" font-family="Hack" font-size="14" lengthAdjust="spacing" textLength="61" x="363.1968" y="812.8373">&#1054;&#1095;&#1080;&#1089;&#1090;&#1082;&#1072;</text></g><!--reverse link unite to find--><g id="link_unite_find"><path d="M574.59,433.92 C618.23,433.92 643.87,433.92 687.51,433.92 " fill="none" id="unite-backto-find" style="stroke:#000000;stroke-width:1.0;"/><polygon fill="none" points="556.59,433.92,574.59,439.92,574.59,427.92,556.59,433.92" style="stroke:#000000;stroke-width:1.0;"/></g><!--reverse link unite to move--><g id="link_unite_move"><path d="M421.5708,461.1263 C377.5208,485.1063 314.7,519.31 269.09,544.14 " fill="none" id="unite-backto-move" style="stroke:#000000;stroke-width:1.0;"/><polygon fill="none" points="437.38,452.52,418.702,455.8565,424.4395,466.396,437.38,452.52" style="stroke:#000000;stroke-width:1.0;"/></g><!--reverse link unite to remove--><g id="link_unite_remove"><path d="M501.4113,466.2541 C526.6213,491.1741 558.09,522.28 582.44,546.34 " fill="none" id="unite-backto-remove" style="stroke:#000000;stroke-width:1.0;"/><polygon fill="none" points="488.61,453.6,497.1933,470.5212,505.6294,461.987,488.61,453.6" style="stroke:#000000;stroke-width:1.0;"/></g><!--link rename to unite--><g id="link_rename_unite"><path d="M163.2,312.54 C233.51,340.15 344.3359,383.6798 410.5359,409.6798 " fill="none" id="rename-to-unite" style="stroke:#000000;stroke-width:1.0;"/><polygon fill="none" points="427.29,416.26,412.7293,404.0951,408.3425,415.2645,427.29,416.26" style="stroke:#000000;stroke-width:1.0;"/></g><!--link cp to unite--><g id="link_cp_unite"><path d="M348.77,433.92 C360.1,433.92 353.44,433.92 364.78,433.92 " fill="none" id="cp-to-unite" style="stroke:#000000;stroke-width:1.0;"/><polygon fill="none" points="382.78,433.92,364.78,427.92,364.78,439.92,382.78,433.92" style="stroke:#000000;stroke-width:1.0;"/></g><!--reverse link move to convert--><g id="link_move_convert"><path d="M233.7,592.03 C233.7,614.6 233.7,644.71 233.7,668.4 " fill="none" id="move-backto-convert" style="stroke:#000000;stroke-width:1.0;stroke-dasharray:7.0,7.0;"/><polygon fill="#000000" points="233.7,586.03,229.7,595.03,233.7,591.03,237.7,595.03,233.7,586.03" style="stroke:#000000;stroke-width:1.0;"/><text fill="#000000" font-family="Hack" font-size="13" lengthAdjust="spacing" textLength="60" x="234.7" y="634.7769">&#171;extend&#187;</text></g><!--link user to unite--><g id="link_user_unite"><path d="M546.29,330.93 C526,357.95 499.59,393.12 483.68,414.31 " fill="none" id="user-unite" style="stroke:#000000;stroke-width:1.0;"/></g><!--link simularity to dup--><g id="link_simularity_dup"><path d="M980.43,585.89 C881.97,611.34 722.0991,652.6485 634.2791,675.3485 " fill="none" id="simularity-to-dup" style="stroke:#000000;stroke-width:1.0;stroke-dasharray:7.0,7.0;"/><polygon fill="#000000" points="628.47,676.85,638.1846,678.4704,633.3109,675.5987,636.1826,670.725,628.47,676.85" style="stroke:#000000;stroke-width:1.0;"/><text fill="#000000" font-family="Hack" font-size="13" lengthAdjust="spacing" textLength="61" x="829.7" y="634.7769">&#171;include&#187;</text></g><!--link remove to dup--><g id="link_remove_dup"><path d="M595.6,582.75 C590.08,606.05 581.6753,641.5321 575.8353,666.1421 " fill="none" id="remove-to-dup" style="stroke:#000000;stroke-width:1.0;stroke-dasharray:7.0,7.0;"/><polygon fill="#000000" points="574.45,671.98,580.4199,664.1467,575.6044,667.1151,572.6361,662.2996,574.45,671.98" style="stroke:#000000;stroke-width:1.0;"/><text fill="#000000" font-family="Hack" font-size="13" lengthAdjust="spacing" textLength="61" x="585.7" y="634.7769">&#171;include&#187;</text></g><!--reverse link unite to dup--><g id="link_unite_dup"><path d="M473.5755,471.8257 C476.9955,502.0257 483.85,544.46 503.7,591.71 C516.46,622.08 538.61,653.18 553.7,672.53 " fill="none" id="unite-backto-dup" style="stroke:#000000;stroke-width:1.0;"/><polygon fill="none" points="471.55,453.94,467.6136,472.5008,479.5374,471.1505,471.55,453.94" style="stroke:#000000;stroke-width:1.0;"/></g><!--link rename to move--><g id="link_rename_move"><path d="M113.98,315.32 C115.2,348.44 120.65,412.02 143.7,460.1 C159.65,493.34 176.0181,512.0295 196.9181,531.2095 " fill="none" id="rename-to-move" style="stroke:#000000;stroke-width:1.0;"/><polygon fill="none" points="210.18,543.38,200.9749,526.7888,192.8612,535.6301,210.18,543.38" style="stroke:#000000;stroke-width:1.0;"/></g><!--reverse link find to substr--><g id="link_find_substr"><path d="M806.7,466.31 C806.7,490.59 806.7,520.73 806.7,543.14 " fill="none" id="find-backto-substr" style="stroke:#000000;stroke-width:1.0;stroke-dasharray:7.0,7.0;"/><polygon fill="#000000" points="806.7,460.31,802.7,469.31,806.7,465.31,810.7,469.31,806.7,460.31" style="stroke:#000000;stroke-width:1.0;"/><text fill="#000000" font-family="Hack" font-size="13" lengthAdjust="spacing" textLength="60" x="807.7" y="503.1669">&#171;extend&#187;</text></g><!--link regex to find--><g id="link_regex_find"><path d="M806.7,323.43 C806.7,348.49 806.7,377.67 806.7,401.32 " fill="none" id="regex-to-find" style="stroke:#000000;stroke-width:1.0;stroke-dasharray:7.0,7.0;"/><polygon fill="#000000" points="806.7,407.32,810.7,398.32,806.7,402.32,802.7,398.32,806.7,407.32" style="stroke:#000000;stroke-width:1.0;"/><text fill="#000000" font-family="Hack" font-size="13" lengthAdjust="spacing" textLength="60" x="807.7" y="373.8069">&#171;extend&#187;</text></g><!--reverse link find to simularity--><g id="link_find_simularity"><path d="M858.4595,461.207 C903.3895,484.027 965.89,515.76 1011.44,538.9 " fill="none" id="find-backto-simularity" style="stroke:#000000;stroke-width:1.0;stroke-dasharray:7.0,7.0;"/><polygon fill="#000000" points="853.11,458.49,859.323,466.1319,857.568,460.7542,862.9457,458.9992,853.11,458.49" style="stroke:#000000;stroke-width:1.0;"/><text fill="#000000" font-family="Hack" font-size="13" lengthAdjust="spacing" textLength="60" x="948.7" y="503.1669">&#171;extend&#187;</text></g><!--link view to unite--><g id="link_view_unite"><path d="M388.18,317.77 C407.71,345.37 428.5193,374.749 446.1193,399.609 " fill="none" id="view-to-unite" style="stroke:#000000;stroke-width:1.0;"/><polygon fill="none" points="456.52,414.3,451.0163,396.1421,441.2223,403.0759,456.52,414.3" style="stroke:#000000;stroke-width:1.0;"/></g><!--link view to user--><g id="link_view_user"><path d="M487.45,292.09 C499.04,292.09 510.62,292.09 522.21,292.09 " fill="none" id="view-user" style="stroke:#000000;stroke-width:1.0;"/></g><!--link sort to view--><g id="link_sort_view"><path d="M370.7,175.01 C370.7,201.1 370.7,234.66 370.7,260.19 " fill="none" id="sort-to-view" style="stroke:#000000;stroke-width:1.0;stroke-dasharray:7.0,7.0;"/><polygon fill="#000000" points="370.7,266.19,374.7,257.19,370.7,261.19,366.7,257.19,370.7,266.19" style="stroke:#000000;stroke-width:1.0;"/><text fill="#000000" font-family="Hack" font-size="13" lengthAdjust="spacing" textLength="61" x="371.7" y="219.5069">&#171;include&#187;</text></g><!--link name to sort--><g id="link_name_sort"><path d="M467.32,56.23 C447.8,74.48 432.5404,88.7291 411.5804,108.3191 " fill="none" id="name-to-sort" style="stroke:#000000;stroke-width:1.0;"/><polygon fill="none" points="398.43,120.61,415.6774,112.7026,407.4835,103.9356,398.43,120.61" style="stroke:#000000;stroke-width:1.0;"/></g><!--reverse link sort to date--><g id="link_sort_date"><path d="M512.61,147.53 C524.03,147.53 517.45,147.53 528.87,147.53 " fill="none" id="sort-backto-date" style="stroke:#000000;stroke-width:1.0;"/><polygon fill="none" points="494.61,147.53,512.61,153.53,512.61,141.53,494.61,147.53" style="stroke:#000000;stroke-width:1.0;"/></g><!--link size to sort--><g id="link_size_sort"><path d="M275.21,57.28 C294.72,75.52 309.351,89.1776 329.921,108.4076 " fill="none" id="size-to-sort" style="stroke:#000000;stroke-width:1.0;"/><polygon fill="none" points="343.07,120.7,334.0185,104.0246,325.8235,112.7906,343.07,120.7" style="stroke:#000000;stroke-width:1.0;"/></g><!--reverse link unite to clean--><g id="link_unite_clean"><path d="M462.5248,471.6053 C449.6548,537.4053 410.65,736.8 399.44,794.11 " fill="none" id="unite-backto-clean" style="stroke:#000000;stroke-width:1.0;"/><polygon fill="none" points="465.98,453.94,456.6364,470.4535,468.4132,472.757,465.98,453.94" style="stroke:#000000;stroke-width:1.0;"/></g><!--link dup to clean--><g id="link_dup_clean"><path d="M540.75,713.12 C505.54,736.33 452.0694,771.5876 421.5794,791.6876 " fill="none" id="dup-to-clean" style="stroke:#000000;stroke-width:1.0;stroke-dasharray:7.0,7.0;"/><polygon fill="#000000" points="416.57,794.99,426.2857,793.3761,420.7445,792.238,421.8826,786.6968,416.57,794.99" style="stroke:#000000;stroke-width:1.0;"/><text fill="#000000" font-family="Hack" font-size="13" lengthAdjust="spacing" textLength="61" x="488.7" y="760.4169">&#171;include&#187;</text></g><!--link convert to clean--><g id="link_convert_clean"><path d="M254.51,717.15 C268.57,731.87 288.07,750.68 307.7,764.35 C326.21,777.24 343.5803,785.9914 361.5103,793.8114 " fill="none" id="convert-to-clean" style="stroke:#000000;stroke-width:1.0;stroke-dasharray:7.0,7.0;"/><polygon fill="#000000" points="367.01,796.21,360.3596,788.9456,362.4269,794.2111,357.1614,796.2785,367.01,796.21" style="stroke:#000000;stroke-width:1.0;"/><text fill="#000000" font-family="Hack" font-size="13" lengthAdjust="spacing" textLength="61" x="308.7" y="760.4169">&#171;include&#187;</text></g><!--SRC=[XLHBSjf04Dth59DTif0EG57SXPYnhIeaKKB2JieBO_9Pu0edI9nKBa0Si1N0oXLwRfJNFIE10JaRIJFz-lVwjLvbvphIAahYn6lH7PMqDhVqYFSzpSqDBVdSKjsXoeSwzLxJTvhJBofXcYipLkO3pdzeZUU6YZS2ZCDC0_cJ5hXTKs5kpAsYXPd04KTQSMGp5N0l7m3wbOCWP577CrD5VwbKj3BN786MyfxHHjnEmxXta6BhAvXKHyc82xaJvoKAN9enPpc6TjWVgAv4vW8UZeD3xCbW9sh1SUcf6Ptgk1jjOpy11q-fuwKSIJpIQUPvGgTgN_bfU7QU-RRr-hANNCI-BNxlphLVt-O3logblklhKqH4EmnLxI2eqggMQhVrPQRZNgVZIRSbwXtJoeq53qmKR4eFArfAqSFyxJ1B3-52r6y8O6rc-6QoDcQYwDvCSPpJWp1Oc2-Ei3DzUImdvpAV68ky4yZFV0JaeHghBI6Cydut3RDte0wILOuEgygjLGL1XzKddORnIJ_lQRHgMMimrhpveblBflAlEdO07ez6MBGyF2VH6VD1O1iyQkLQWvqU3kSW78oXkPAv5mfb7wynXEtwiAw4Zb6eBpn-E1vGgsN2tjcj5csMppI97Vrlx642VJQuoi2grR2JgRUW2RwmVnpsUtIULXOp-wlePY_wYvB44VQ94yDxp1nbAijiH_ZOcwhOtO98ZTM5MpZ9kmkIgAZac_dC-aGjgC4kRLztuwrCt9c5n8AIqrxoQjyQxFy0]--></g></svg>